<svg xmlns="http://www.w3.org/2000/svg" width="50" height="50" viewBox="0 0 50 50">
    <path fill="#EB553C" fill-rule="nonzero" d="M24.918 0C11.157 0 0 11.157 0 24.918c0 13.762 11.157 24.917 24.918 24.917 13.76 0 24.917-11.155 24.917-24.917C49.835 11.157 38.678 0 24.918 0zm0 45.162c-11.182 0-20.246-9.063-20.246-20.245S13.736 4.67 24.918 4.67c11.181 0 20.245 9.064 20.245 20.246 0 11.181-9.064 20.245-20.245 20.245zM34.994 23.77l-14.261-7.941c-1.039-.634-2.06-.123-2.06 1.137v15.918c0 1.258 1.021 1.772 2.06 1.135l14.237-7.824c1.32-.752.84-1.966.024-2.425z"/>
</svg>
