<svg xmlns="http://www.w3.org/2000/svg" width="42" height="32" viewBox="0 0 42 32">
    <g fill="none" fill-rule="evenodd">
        <path fill="#FFF" fill-rule="nonzero" d="M40.946 31.27v.082h.077a.083.083 0 0 0 .043-.01.036.036 0 0 0 .015-.031.034.034 0 0 0-.015-.03.076.076 0 0 0-.043-.01h-.077zm.078-.057c.04 0 .071.009.093.026a.086.086 0 0 1 .033.072.081.081 0 0 1-.026.063.13.13 0 0 1-.075.03l.103.115h-.08l-.095-.114h-.031v.114h-.067v-.306h.145zm-.02.412a.269.269 0 0 0 .242-.158.256.256 0 0 0-.242-.356.267.267 0 0 0-.189.074.249.249 0 0 0-.076.182c0 .036.007.07.02.1a.241.241 0 0 0 .056.082.267.267 0 0 0 .085.055c.032.014.067.021.104.021zm0-.588a.347.347 0 0 1 .318.202c.018.04.026.083.026.128a.309.309 0 0 1-.026.128.342.342 0 0 1-.318.203.353.353 0 0 1-.32-.203.309.309 0 0 1-.028-.128.324.324 0 0 1 .1-.233.353.353 0 0 1 .247-.097zM9.17 29.857c0-.585.393-1.064 1.035-1.064.613 0 1.028.459 1.028 1.064s-.415 1.064-1.028 1.064c-.642 0-1.035-.48-1.035-1.064zm2.762 0v-1.662h-.742v.403c-.235-.299-.592-.487-1.078-.487-.956 0-1.706.73-1.706 1.746 0 1.015.75 1.745 1.706 1.745.486 0 .843-.188 1.078-.487v.403h.742v-1.661zm25.07 0c0-.585.393-1.064 1.036-1.064.614 0 1.027.459 1.027 1.064s-.413 1.064-1.027 1.064c-.643 0-1.036-.48-1.036-1.064zm2.764 0V26.86h-.743v1.738c-.235-.299-.592-.487-1.078-.487-.956 0-1.707.73-1.707 1.746 0 1.015.75 1.745 1.707 1.745.486 0 .843-.188 1.078-.487v.403h.743v-1.661zm-18.625-1.099c.478 0 .785.292.864.807h-1.77c.078-.48.377-.807.906-.807zm.015-.647c-1 0-1.7.71-1.7 1.746 0 1.057.728 1.745 1.75 1.745.513 0 .984-.125 1.398-.466l-.363-.535c-.286.222-.65.348-.993.348-.478 0-.913-.216-1.02-.815h2.533c.008-.09.015-.18.015-.277-.007-1.037-.664-1.746-1.62-1.746zm8.958 1.746c0-.585.393-1.064 1.035-1.064.614 0 1.028.459 1.028 1.064s-.414 1.064-1.028 1.064c-.642 0-1.035-.48-1.035-1.064zm2.762 0v-1.662h-.742v.403c-.236-.299-.592-.487-1.077-.487-.957 0-1.707.73-1.707 1.746 0 1.015.75 1.745 1.707 1.745.485 0 .841-.188 1.077-.487v.403h.742v-1.661zm-6.952 0c0 1.008.72 1.745 1.82 1.745.514 0 .857-.111 1.228-.396l-.357-.585c-.278.195-.57.3-.893.3-.592-.007-1.027-.424-1.027-1.064 0-.64.435-1.057 1.027-1.064.322 0 .615.104.893.299l.357-.584c-.371-.285-.714-.397-1.228-.397-1.1 0-1.82.737-1.82 1.746zm9.565-1.746c-.428 0-.707.195-.9.487v-.403h-.735v3.323h.743v-1.863c0-.55.243-.855.728-.855.15 0 .307.02.464.083l.229-.681a1.618 1.618 0 0 0-.529-.09zm-19.888.348c-.357-.23-.849-.348-1.391-.348-.864 0-1.42.404-1.42 1.064 0 .542.413.877 1.176.98l.351.05c.407.055.599.16.599.347 0 .257-.271.404-.778.404-.514 0-.885-.16-1.135-.348l-.35.563c.407.292.921.431 1.478.431.985 0 1.556-.452 1.556-1.085 0-.584-.45-.89-1.192-.994l-.35-.05c-.32-.04-.578-.103-.578-.325 0-.244.243-.39.65-.39.435 0 .857.16 1.063.285l.321-.584zm9.573-.348a1.01 1.01 0 0 0-.899.487v-.403h-.735v3.323h.742v-1.863c0-.55.242-.855.728-.855.15 0 .307.02.464.083l.229-.681a1.618 1.618 0 0 0-.529-.09zm-6.331.084H17.63v-1.009h-.75v1.009h-.692v.66h.692v1.517c0 .77.307 1.23 1.185 1.23.322 0 .693-.097.928-.257l-.214-.62a1.4 1.4 0 0 1-.657.189c-.37 0-.492-.223-.492-.557v-1.502h1.214v-.66zM7.75 31.518v-2.086c0-.785-.514-1.314-1.343-1.32-.435-.008-.885.124-1.2.59-.235-.368-.606-.59-1.127-.59-.364 0-.72.104-1 .493v-.41H2.34v3.323h.75v-1.842c0-.577.328-.883.835-.883.493 0 .742.312.742.876v1.85h.75v-1.843c0-.577.343-.883.835-.883.507 0 .75.312.75.876v1.85h.75zM41.403 20.687v-.63h-.13l-.15.433-.15-.432h-.13v.63h.092v-.475l.14.41h.096l.14-.411v.475h.092zm-.824 0v-.522h.167v-.106h-.425v.106h.166v.522h.092z"/>
        <path fill="#F4F4F4" d="M26.631 22.554H15.387V2.87h11.244z"/>
        <path fill="#CECED0" d="M16.107 12.71c0-3.993 1.92-7.55 4.908-9.841A13.012 13.012 0 0 0 13.074.192C5.977.192.224 5.797.224 12.71c0 6.914 5.753 12.519 12.85 12.519 2.997 0 5.756-1 7.941-2.677-2.988-2.292-4.908-5.849-4.908-9.842"/>
        <path fill="#FFF" d="M28.946 25.229c-2.998 0-5.756-1-7.943-2.677 2.99-2.292 4.909-5.849 4.909-9.842 0-3.993-1.92-7.55-4.909-9.841A13.016 13.016 0 0 1 28.946.192c7.097 0 12.85 5.605 12.85 12.518 0 6.914-5.753 12.519-12.85 12.519z"/>
    </g>
</svg>
